# xmcd
#
# Track frame offsets:
# 150
# 12417
# 21514
# 29177
# 38360
# 46427
#
# Disc length: 706 seconds
#
#
# Revision: 0
# Processed by: cddbd v1.5.2PL0 Copyright (c) Steve Scherf et al.
# Submitted via: FreeRIP 2.951 
#
DISCID=4902c006
DTITLE=The casualities - 40 oz casualty
DYEAR=1900
DGENRE=Acid Punk
TTITLE0=Death and destruction
TTITLE1=Ugly Bastard
TTITLE2=Bored and glued
TTITLE3=Punk Rock love
TTITLE4=40 oz casualty
TTITLE5=oi song
EXTD=
EXTT0=
EXTT1=
EXTT2=
EXTT3=
EXTT4=
EXTT5=
PLAYORDER=
